<?xml version="1.0" standalone="no"?>
<!DOCTYPE svg PUBLIC "-//W3C//DTD SVG 1.0//EN" "http://www.w3.org/TR/2001/REC-SVG-20010904/DTD/svg10.dtd">
<svg xmlns="http://www.w3.org/2000/svg" xmlns:xlink="http://www.w3.org/1999/xlink" id="body_1" width="1024" height="768">

<g transform="matrix(32 0 0 32 128 -0)">
    <path d="M12 0C 5.4 0 0 4.9 0 10.95C 0 17 5.4 21.9 12 21.9C 13.4 21.9 14.85 21.65 16.2 21.199999C 16.35 21.15 16.550001 21.199999 16.650002 21.3C 17.650002 22.65 19.2 23.599998 20.900002 24L20.900002 24L21.150002 23.9L21.150002 23.6L20.900002 24L21.150002 23.9L21.150002 23.6C 22.9 15.85 24 13.5 24 10.95C 24 4.9 18.55 0 12 0zM11.95 5.2C 12.099999 5.2 12.25 5.2999997 12.3 5.45L12.3 5.45L13.55 9L17.4 9.1C 17.55 9.1 17.699999 9.200001 17.75 9.3C 17.8 9.45 17.75 9.6 17.6 9.7L17.6 9.7L14.55 12L15.650001 15.6C 15.700001 15.75 15.650001 15.900001 15.500001 16L15.500001 16L15.100001 16L11.950001 13.85L8.8 16L8.400001 16C 8.250001 15.9 8.200001 15.75 8.250001 15.6L8.250001 15.6L9.350001 12L6.3 9.7C 6.15 9.599999 6.1000004 9.45 6.15 9.3C 6.2000003 9.2 6.35 9.1 6.5 9.1L6.5 9.1L10.35 9L11.6 5.45C 11.650001 5.2999997 11.8 5.2 11.950001 5.2z" stroke="none" fill="#000000" fill-rule="nonzero" />
</g>
</svg>